<?xml version="1.0" encoding="UTF-8"?>
<svg version="1.1" xmlns="http://www.w3.org/2000/svg" width="500" height="500">
<path d="M0 0 C165 0 330 0 500 0 C500 165 500 330 500 500 C335 500 170 500 0 500 C0 335 0 170 0 0 Z " fill="#000000" transform="translate(0,0)"/>
<path d="M0 0 C1.87763871 1.50896992 3.70489431 3.081227 5.5 4.6875 C6.14565918 5.265 6.79131836 5.8425 7.45654297 6.4375 C23.7035341 21.19329328 23.7035341 21.19329328 25.5 31.6875 C25.7475 32.821875 25.995 33.95625 26.25 35.125 C27.49553949 52.87393774 24.23228602 67.51820014 12.64453125 81.3203125 C-1.2657543 96.67483535 -20.62642491 105.8227579 -38.5 115.6875 C-66.0377367 130.88647938 -94.14200378 147.30613189 -104.5703125 178.93359375 C-106.11270862 184.81117118 -106.99581185 190.63724221 -107.5 196.6875 C-112.85473628 192.20495496 -117.88582477 187.48991897 -122.84765625 182.578125 C-123.62257919 181.8112738 -124.39750214 181.04442261 -125.19590759 180.2543335 C-126.82518947 178.63880944 -128.45297882 177.02177889 -130.0793457 175.40332031 C-131.73210884 173.7620945 -133.38933333 172.12534899 -135.05102539 170.49316406 C-137.47240097 168.11468923 -139.88003786 165.72302549 -142.28515625 163.328125 C-143.01968521 162.61110413 -143.75421417 161.89408325 -144.51100159 161.15533447 C-156.38201152 149.2345475 -160.79960416 136.20924108 -160.81469727 119.65209961 C-160.52953903 102.96949927 -151.41019906 90.93657248 -139.8828125 79.64453125 C-138.98505096 78.75005783 -138.08728943 77.85558441 -137.162323 76.93400574 C-134.80595175 74.59060329 -132.44095861 72.25639615 -130.07159424 69.92614746 C-128.12680173 68.00884348 -126.19160124 66.08200734 -124.25665474 64.15477467 C-121.94807612 61.85612402 -119.63437764 59.56265681 -117.3203125 57.26953125 C-116.45060822 56.4072139 -115.58090393 55.54489655 -114.68484497 54.65644836 C-113.88666351 53.87110214 -113.08848206 53.08575592 -112.26611328 52.27661133 C-111.56108673 51.58142899 -110.85606018 50.88624664 -110.12966919 50.16999817 C-108.5 48.6875 -108.5 48.6875 -107.5 48.6875 C-107.34144531 49.76386719 -107.18289062 50.84023437 -107.01953125 51.94921875 C-103.34719366 75.49442745 -92.9090877 92.51479256 -74.5 107.6875 C-73.93152344 108.16703125 -73.36304688 108.6465625 -72.77734375 109.140625 C-71.13042697 110.48094308 -71.13042697 110.48094308 -68.5 111.6875 C-63.74553312 110.30689256 -59.4645058 107.50868741 -55.1875 105.0625 C-54.44693359 104.64226562 -53.70636719 104.22203125 -52.94335938 103.7890625 C-51.12730989 102.75801505 -49.31343467 101.72313954 -47.5 100.6875 C-47.9532666 100.35016846 -48.4065332 100.01283691 -48.87353516 99.6652832 C-50.95866356 98.1119343 -53.04183903 96.55598626 -55.125 95 C-55.83785156 94.46955078 -56.55070312 93.93910156 -57.28515625 93.39257812 C-65.75984694 87.05599747 -65.75984694 87.05599747 -69.5 83.6875 C-69.5 83.0275 -69.5 82.3675 -69.5 81.6875 C-70.16 81.6875 -70.82 81.6875 -71.5 81.6875 C-81.12884894 70.63986193 -85.83666854 58.09494229 -86.0625 43.5 C-86.08485718 42.46903198 -86.08485718 42.46903198 -86.10766602 41.41723633 C-85.89011963 30.42277655 -82.42144991 21.51363587 -74.625 13.77734375 C-73.75875 12.96394531 -72.8925 12.15054688 -72 11.3125 C-71.1646875 10.47589844 -70.329375 9.63929688 -69.46875 8.77734375 C-50.47462439 -9.66664713 -22.90129026 -15.3926705 0 0 Z " fill="#FDFDFD" transform="translate(279.5,127.3125)"/>
<path d="M0 0 C5.26043385 4.40814405 10.21632845 9.02897228 15.09375 13.85546875 C15.84410522 14.59775223 16.59446045 15.34003571 17.36755371 16.10481262 C18.94555986 17.66906281 20.52207504 19.23481839 22.09716797 20.80200195 C23.69458656 22.38789679 25.2964624 23.969315 26.90283203 25.54614258 C41.59668868 39.97045625 52.92433825 52.46849345 53.25 74.125 C52.96961071 98.79925729 36.09284647 113.08192372 19.84960938 129.28076172 C17.47407575 131.65086499 15.10402286 134.02635732 12.734375 136.40234375 C11.22948781 137.90657136 9.72429111 139.41048939 8.21875 140.9140625 C7.50843628 141.62640045 6.79812256 142.3387384 6.06628418 143.07266235 C5.08891296 144.04530533 5.08891296 144.04530533 4.09179688 145.03759766 C3.51715698 145.61144196 2.94251709 146.18528625 2.35046387 146.77651978 C1 148 1 148 0 148 C-0.15855469 146.91203125 -0.31710937 145.8240625 -0.48046875 144.703125 C-1.90379548 135.51705612 -3.85350762 127.40022162 -8 119 C-8.40734375 118.10152344 -8.8146875 117.20304687 -9.234375 116.27734375 C-14.73283082 105.03785319 -25.93800953 92.08577591 -37 86 C-42.66097127 85.91302977 -46.81138631 89.06272862 -51.375 92.0625 C-52.47908203 92.77116211 -52.47908203 92.77116211 -53.60546875 93.49414062 C-55.40942165 94.65382463 -57.2055239 95.82570507 -59 97 C-58.0821875 97.64066406 -57.164375 98.28132813 -56.21875 98.94140625 C-40.26201671 110.14789424 -26.45202085 121.80670905 -22.39453125 142.015625 C-20.91576167 153.2015652 -21.51351194 166.33451469 -27.3671875 176.3359375 C-29.11860756 178.40104473 -31.00462485 180.16800923 -33 182 C-34.00347762 183.04497481 -35.00031384 184.09634833 -35.9921875 185.15234375 C-47.57799743 197.37218574 -59.42136689 204.79723569 -76.79272461 205.47290039 C-93.67730394 205.66908885 -106.34440894 198.88320738 -118.5222168 187.39233398 C-127.197498 178.79948242 -133.19730619 172.63595412 -134 160 C-134.0923291 158.92685547 -134.0923291 158.92685547 -134.18652344 157.83203125 C-135.34311919 143.30268785 -132.30822486 131.16115391 -123.1484375 119.515625 C-108.51628619 102.38270601 -89.12273715 92.81557998 -69.64941406 82.16796875 C-57.26568966 75.38216729 -45.15836749 68.68535147 -34 60 C-33.04480469 59.30003906 -32.08960938 58.60007813 -31.10546875 57.87890625 C-13.3022337 44.3086082 -3.55896915 24.95834998 -0.3984375 3.02734375 C-0.26695312 2.02832031 -0.13546875 1.02929688 0 0 Z " fill="#FDFDFD" transform="translate(328,176)"/>
</svg>
